<svg width="175" height="86" viewBox="0 0 175 86" fill="none" xmlns="http://www.w3.org/2000/svg">
<path id="Ellipse 1" d="M173.335 63.7233C172.147 68.6464 168.697 72.8399 163.35 76.19C158 79.5425 150.794 82.0204 142.208 83.5066C125.04 86.4784 102.506 85.4591 78.6908 79.71C54.8756 73.961 34.3582 64.5874 20.4367 54.1103C13.4749 48.871 8.19238 43.3781 4.96095 37.9539C1.73196 32.5338 0.575099 27.2282 1.76358 22.305C2.95206 17.3819 6.40204 13.1884 11.7482 9.83836C17.0984 6.48578 24.3051 4.00788 32.8905 2.52173C50.0586 -0.450112 72.5928 0.569176 96.4079 6.31827C120.223 12.0674 140.74 21.441 154.662 31.918C161.624 37.1573 166.906 42.6502 170.138 48.0744C173.367 53.4945 174.524 58.8001 173.335 63.7233Z" stroke="black" stroke-width="1.5"/>
</svg>
