<svg width="69" height="69" viewBox="0 0 69 69" fill="none" xmlns="http://www.w3.org/2000/svg">
<g id="insta">
<path id="Vector" d="M34.5 48.9446C38.3309 48.9446 42.0049 47.4227 44.7138 44.7139C47.4226 42.005 48.9444 38.331 48.9444 34.5001C48.9444 30.6692 47.4226 26.9952 44.7138 24.2863C42.0049 21.5775 38.3309 20.0557 34.5 20.0557C30.6691 20.0557 26.9951 21.5775 24.2862 24.2863C21.5774 26.9952 20.0555 30.6692 20.0555 34.5001C20.0555 38.331 21.5774 42.005 24.2862 44.7139C26.9951 47.4227 30.6691 48.9446 34.5 48.9446Z" stroke="black" stroke-width="3" stroke-linecap="round" stroke-linejoin="round"/>
<path id="Vector_2" d="M2 48.9444V20.0556C2 15.2669 3.90228 10.6744 7.28835 7.28835C10.6744 3.90228 15.2669 2 20.0556 2H48.9444C53.7331 2 58.3256 3.90228 61.7117 7.28835C65.0977 10.6744 67 15.2669 67 20.0556V48.9444C67 53.7331 65.0977 58.3256 61.7117 61.7117C58.3256 65.0977 53.7331 67 48.9444 67H20.0556C15.2669 67 10.6744 65.0977 7.28835 61.7117C3.90228 58.3256 2 53.7331 2 48.9444Z" stroke="black" stroke-width="3"/>
<path id="Vector_3" d="M53 15.0389L53.0354 15" stroke="black" stroke-width="3" stroke-linecap="round" stroke-linejoin="round"/>
</g>
</svg>
