<svg width="41" height="38" viewBox="0 0 41 38" fill="none" xmlns="http://www.w3.org/2000/svg">
<g id="login">
<path id="login_2" d="M40.7676 35.6878C37.7684 30.6903 33.1465 27.1069 27.7528 25.4081C30.4208 23.8773 32.4936 21.5447 33.6531 18.7685C34.8125 15.9923 34.9943 12.9261 34.1707 10.0406C33.347 7.15518 31.5634 4.61011 29.0938 2.79624C26.6241 0.982366 23.605 0 20.5 0C17.395 0 14.3759 0.982366 11.9062 2.79624C9.43658 4.61011 7.65298 7.15518 6.82933 10.0406C6.00568 12.9261 6.18752 15.9923 7.34694 18.7685C8.50635 21.5447 10.5792 23.8773 13.2472 25.4081C7.85345 27.105 3.23162 30.6884 0.232444 35.6878C0.122459 35.8606 0.0495063 36.0529 0.017891 36.2534C-0.0137242 36.4539 -0.00336205 36.6584 0.0483661 36.8549C0.100094 37.0515 0.192141 37.2361 0.319075 37.3978C0.446008 37.5595 0.605258 37.695 0.787428 37.7964C0.969598 37.8978 1.171 37.9631 1.37975 37.9882C1.58849 38.0134 1.80036 37.9981 2.00284 37.943C2.20533 37.888 2.39433 37.7945 2.5587 37.6679C2.72307 37.5414 2.85947 37.3844 2.95986 37.2062C6.66993 31.0263 13.2275 27.3365 20.5 27.3365C27.7725 27.3365 34.3301 31.0263 38.0401 37.2062C38.1405 37.3844 38.2769 37.5414 38.4413 37.6679C38.6057 37.7945 38.7947 37.888 38.9972 37.943C39.1996 37.9981 39.4115 38.0134 39.6203 37.9882C39.829 37.9631 40.0304 37.8978 40.2126 37.7964C40.3947 37.695 40.554 37.5595 40.6809 37.3978C40.8079 37.2361 40.8999 37.0515 40.9516 36.8549C41.0034 36.6584 41.0137 36.4539 40.9821 36.2534C40.9505 36.0529 40.8775 35.8606 40.7676 35.6878ZM9.47218 13.6708C9.47218 11.5687 10.119 9.51367 11.3307 7.76576C12.5425 6.01786 14.2648 4.65553 16.2798 3.85105C18.2949 3.04658 20.5122 2.83609 22.6514 3.24621C24.7906 3.65633 26.7556 4.66863 28.2978 6.1551C29.8401 7.64157 30.8904 9.53546 31.3159 11.5973C31.7414 13.6591 31.523 15.7962 30.6884 17.7383C29.8537 19.6805 28.4402 21.3405 26.6267 22.5084C24.8132 23.6763 22.6811 24.2997 20.5 24.2997C17.5762 24.2967 14.773 23.1759 12.7056 21.1833C10.6382 19.1906 9.47531 16.4889 9.47218 13.6708Z" fill="black"/>
</g>
</svg>
