<svg width="53" height="38" viewBox="0 0 53 38" fill="none" xmlns="http://www.w3.org/2000/svg">
<g id="panier">
<path id="panier_2" d="M27.9399 19.7738V30.632C27.9399 30.9405 27.7876 31.2364 27.5166 31.4546C27.2456 31.6728 26.878 31.7953 26.4947 31.7953C26.1115 31.7953 25.7439 31.6728 25.4729 31.4546C25.2019 31.2364 25.0496 30.9405 25.0496 30.632V19.7738C25.0496 19.4652 25.2019 19.1693 25.4729 18.9511C25.7439 18.733 26.1115 18.6104 26.4947 18.6104C26.878 18.6104 27.2456 18.733 27.5166 18.9511C27.7876 19.1693 27.9399 19.4652 27.9399 19.7738ZM37.7741 19.6574L36.4253 30.5156C36.4053 30.6681 36.4229 30.8222 36.4772 30.9692C36.5314 31.1162 36.6213 31.253 36.7415 31.372C36.8616 31.4909 37.0099 31.5895 37.1776 31.6622C37.3453 31.7348 37.5292 31.7801 37.7187 31.7953H37.8656C38.2251 31.7968 38.5724 31.6903 38.8396 31.4967C39.1068 31.3031 39.2748 31.0363 39.3107 30.7483L40.6595 19.8901C40.6978 19.5831 40.5831 19.2764 40.3406 19.0375C40.098 18.7986 39.7475 18.6471 39.3661 18.6162C38.9848 18.5854 38.6038 18.6777 38.307 18.873C38.0103 19.0683 37.822 19.3504 37.7837 19.6574H37.7741ZM15.2154 19.6574C15.1771 19.3504 14.9889 19.0683 14.6921 18.873C14.3953 18.6777 14.0144 18.5854 13.633 18.6162C13.2517 18.6471 12.9011 18.7986 12.6586 19.0375C12.416 19.2764 12.3013 19.5831 12.3396 19.8901L13.6884 30.7483C13.7244 31.0363 13.8923 31.3031 14.1596 31.4967C14.4268 31.6903 14.774 31.7968 15.1336 31.7953H15.2805C15.4693 31.7801 15.6525 31.735 15.8197 31.6627C15.9869 31.5904 16.1348 31.4923 16.2549 31.374C16.375 31.2557 16.465 31.1196 16.5197 30.9733C16.5745 30.827 16.5929 30.6734 16.5739 30.5214L15.2154 19.6574ZM52.989 13.7223L49.3448 35.6442C49.2369 36.296 48.8387 36.8941 48.2243 37.3274C47.6099 37.7606 46.821 37.9997 46.0041 38H6.98538C6.16855 37.9997 5.37964 37.7606 4.76522 37.3274C4.1508 36.8941 3.75264 36.296 3.6447 35.6442L0.0125814 13.7223C-0.014528 13.558 0.00228882 13.3909 0.061905 13.2323C0.121521 13.0736 0.222561 12.927 0.358256 12.8024C0.493951 12.6777 0.661169 12.5778 0.848709 12.5094C1.03625 12.441 1.23978 12.4057 1.44568 12.4057H12.3517L25.4061 0.393875C25.5417 0.270084 25.7085 0.170941 25.8953 0.103031C26.0822 0.0351212 26.2849 0 26.4899 0C26.695 0 26.8976 0.0351212 27.0845 0.103031C27.2714 0.170941 27.4382 0.270084 27.5738 0.393875L40.6282 12.4154H51.5438C51.7496 12.4142 51.9533 12.4483 52.1413 12.5155C52.3294 12.5827 52.4975 12.6815 52.6343 12.8052C52.7711 12.9289 52.8735 13.0748 52.9347 13.2329C52.9958 13.3911 53.0143 13.5579 52.989 13.7223ZM16.1909 12.4057H36.7986L26.4947 2.92616L16.1909 12.4057ZM49.894 14.7325H3.09554L6.50366 35.3359C6.51895 35.4298 6.57638 35.5159 6.66511 35.578C6.75385 35.6402 6.86776 35.674 6.98538 35.6732H46.0041C46.1217 35.674 46.2357 35.6402 46.3244 35.578C46.4131 35.5159 46.4706 35.4298 46.4858 35.3359L49.894 14.7325Z" fill="black"/>
</g>
</svg>
