<svg width="63" height="65" viewBox="0 0 63 65" fill="none" xmlns="http://www.w3.org/2000/svg">
<g id="tik-tok">
<path id="tik tok" d="M61.25 17.5C56.9418 17.495 52.8114 15.7814 49.765 12.735C46.7186 9.68861 45.005 5.55824 45 1.25C45 0.918479 44.8683 0.600537 44.6339 0.366117C44.3995 0.131696 44.0815 0 43.75 0H31.25C30.9185 0 30.6005 0.131696 30.3661 0.366117C30.1317 0.600537 30 0.918479 30 1.25V42.5C29.9998 43.8422 29.6395 45.1598 28.9565 46.3153C28.2735 47.4708 27.293 48.4218 26.1172 49.0691C24.9413 49.7165 23.6134 50.0364 22.2718 49.9956C20.9301 49.9547 19.6241 49.5546 18.4898 48.8369C17.3556 48.1192 16.4347 47.1103 15.8233 45.9154C15.2119 44.7205 14.9323 43.3835 15.0138 42.0437C15.0953 40.704 15.5348 39.4106 16.2866 38.2986C17.0383 37.1867 18.0746 36.2968 19.2875 35.7219C19.5012 35.6201 19.6816 35.4598 19.8077 35.2595C19.9338 35.0592 20.0005 34.8273 20 34.5906V21.25C20.0001 21.0673 19.9601 20.8868 19.8829 20.7212C19.8057 20.5556 19.6931 20.4089 19.553 20.2915C19.413 20.1741 19.2489 20.0889 19.0724 20.0418C18.8959 19.9946 18.7112 19.9868 18.5312 20.0187C7.96563 21.9 0 31.5625 0 42.5C0 48.4674 2.37053 54.1903 6.5901 58.4099C10.8097 62.6295 16.5326 65 22.5 65C28.4674 65 34.1903 62.6295 38.4099 58.4099C42.6295 54.1903 45 48.4674 45 42.5V27.95C49.8921 30.9392 55.5169 32.5142 61.25 32.5C61.5815 32.5 61.8995 32.3683 62.1339 32.1339C62.3683 31.8995 62.5 31.5815 62.5 31.25V18.75C62.5 18.4185 62.3683 18.1005 62.1339 17.8661C61.8995 17.6317 61.5815 17.5 61.25 17.5ZM60 29.975C54.4127 29.7449 49.0163 27.878 44.4812 24.6062C44.2942 24.4714 44.0736 24.3908 43.8436 24.3735C43.6137 24.3563 43.3834 24.4029 43.1784 24.5084C42.9733 24.6138 42.8014 24.7739 42.6817 24.971C42.562 25.1681 42.4991 25.3944 42.5 25.625V42.5C42.5 47.8043 40.3929 52.8914 36.6421 56.6421C32.8914 60.3929 27.8043 62.5 22.5 62.5C17.1957 62.5 12.1086 60.3929 8.35786 56.6421C4.60714 52.8914 2.5 47.8043 2.5 42.5C2.5 33.275 8.85 25.0656 17.5 22.8125V33.8469C15.9795 34.7247 14.717 35.9874 13.8393 37.5079C12.9616 39.0284 12.4997 40.7532 12.5 42.5089C12.5003 44.2646 12.9628 45.9892 13.8411 47.5094C14.7193 49.0297 15.9823 50.2919 17.5031 51.1692C19.0239 52.0465 20.7488 52.5079 22.5045 52.5071C24.2601 52.5063 25.9846 52.0434 27.5046 51.1647C29.0246 50.2861 30.2865 49.0227 31.1634 47.5017C32.0403 45.9807 32.5013 44.2557 32.5 42.5V2.5H42.5406C42.8502 7.02849 44.7891 11.2917 47.9987 14.5013C51.2083 17.7109 55.4715 19.6498 60 19.9594V29.975Z" fill="black"/>
</g>
</svg>
